<svg width="491" height="627" viewBox="0 0 491 627" fill="none" xmlns="http://www.w3.org/2000/svg">
<mask id="path-1-inside-1_1_264" fill="white">
<path d="M0 0H399V627H0V0Z"/>
</mask>
<path d="M0 0H399V627H0V0Z" fill="#F8ECF7"/>
<path d="M398 0V627H400V0H398Z" fill="#F5E3F3" mask="url(#path-1-inside-1_1_264)"/>
<path fill-rule="evenodd" clip-rule="evenodd" d="M338.855 157.281C382.887 156.364 432.023 156.093 462.122 188.243C491.74 219.88 495.875 270.055 483.245 311.511C472.892 345.491 429.457 351.878 404.551 377.207C379.185 403.004 374.308 451.141 338.855 458.352C301.48 465.954 264.371 439.766 239.611 410.755C216.528 383.708 216.625 346.934 213.531 311.511C209.959 270.619 194.728 225.125 220.614 193.269C247.623 160.03 296.035 158.172 338.855 157.281Z" fill="#EED0EA" stroke="#EED0EA"/>
<path fill-rule="evenodd" clip-rule="evenodd" d="M207.413 60.4535C253.222 51.2364 312.729 43.5363 340.355 82.669C367.925 121.724 328.402 173.224 320.774 221.032C315.278 255.479 326.257 295.342 302.491 319.988C278.743 344.614 240.397 332.35 207.413 338.588C159.869 347.58 106.904 396.538 70.107 363.939C33.8553 331.823 64.989 269.534 74.7204 221.032C81.7719 185.887 95.0528 154.721 117.546 127.5C142.53 97.2659 169.795 68.0228 207.413 60.4535Z" fill="#F5E3F3"/>
<path fill-rule="evenodd" clip-rule="evenodd" d="M212.139 253.491C251.422 252.173 286.523 206.973 321.758 224.372C359.606 243.062 370.806 291.906 374.934 333.88C379.566 380.968 375.951 430.888 345.647 467.252C313.008 506.418 262.81 535.137 212.139 529.228C164.395 523.661 140.049 473.798 106.54 439.37C73.865 405.798 21.3083 380.699 22.0069 333.88C22.7033 287.203 66.608 249.683 109.642 231.488C143.097 217.343 175.831 254.709 212.139 253.491Z" fill="#EBC7E6"/>
</svg>
