<svg width="216" height="24" viewBox="0 0 216 24" fill="none" xmlns="http://www.w3.org/2000/svg">
<path d="M9.17399 18.5052C6.72008 17.4118 5 14.9348 5 12.0512C5 8.1536 8.16006 5 12 5C12.7573 5 13.4882 5.12267 14.1736 5.34952C14.0788 5.34685 13.983 5.34538 13.887 5.34538C12.6111 5.34538 11.3905 5.73708 10.4878 6.64346C9.58413 7.55074 9.17399 8.79779 9.17399 10.1652V10.5512H8.51499H7.01499V12.0512V14.5261V16.0261H8.51499H9.17399V18.5052ZM15.7825 7.00753C15.8386 6.67222 15.882 6.41291 15.9155 6.21237C15.9155 6.21238 15.9155 6.21238 15.9155 6.21238L15.7825 7.00753ZM17.2825 7.43334C18.3504 8.67 19 10.2841 19 12.0512L19 12.0546C19.0037 13.7343 18.4092 15.3593 17.325 16.6361C16.6371 17.4462 15.781 18.0823 14.826 18.5058V16.0261H15.3065H16.5925L16.7889 14.7552L17.1714 12.2803L17.4386 10.5512H17.2825V9.11546V7.43334Z" stroke="#60656F" stroke-width="3"/>
<rect x="6.5" y="7.5" width="2" height="2" fill="#60656F"/>
<path d="M66.5 10.605C66.3401 10.3827 66.1577 10.1748 65.9549 9.98472C65.1239 9.20559 64.0162 8.78333 62.88 8.78333C62.5287 8.78333 62.1645 8.83769 61.8066 8.94167H60.8178H58.3378H58.1844H58.1702C58.3461 8.56998 58.4422 8.15929 58.4422 7.73333C58.4422 7.06852 58.2205 6.47487 57.8552 6H66.2222C66.326 6 66.4076 6.03955 66.4534 6.08246C66.4752 6.10291 66.4867 6.12168 66.4926 6.13507C66.4985 6.14827 66.5 6.1586 66.5 6.16667V10.605Z" stroke="#60656F" stroke-width="3"/>
<path d="M104.43 4H111.57C114.014 4 116 5.98614 116 8.43V15.57C116 16.7449 115.533 17.8717 114.702 18.7025C113.872 19.5333 112.745 20 111.57 20H104.43C101.986 20 100 18.0139 100 15.57V8.43C100 7.25509 100.467 6.1283 101.298 5.29752C102.128 4.46673 103.255 4 104.43 4ZM104.26 4.7C103.316 4.7 102.41 5.07507 101.743 5.7427C101.075 6.41033 100.7 7.31583 100.7 8.26V15.74C100.7 17.7076 102.292 19.3 104.26 19.3H111.74C112.684 19.3 113.59 18.9249 114.257 18.2573C114.925 17.5897 115.3 16.6842 115.3 15.74V8.26C115.3 6.29236 113.708 4.7 111.74 4.7H104.26ZM112.463 6.975C112.612 6.975 112.755 7.03426 112.86 7.13975C112.966 7.24524 113.025 7.38832 113.025 7.5375C113.025 7.68669 112.966 7.82976 112.86 7.93525C112.755 8.04074 112.612 8.1 112.463 8.1C112.313 8.1 112.17 8.04074 112.065 7.93525C111.959 7.82976 111.9 7.68669 111.9 7.5375C111.9 7.38831 111.959 7.24524 112.065 7.13975L111.711 6.7862L112.065 7.13975C112.17 7.03426 112.313 6.975 112.463 6.975ZM108 8.25C108.995 8.25 109.948 8.64509 110.652 9.34835C111.355 10.0516 111.75 11.0054 111.75 12C111.75 12.9946 111.355 13.9484 110.652 14.6517C109.948 15.3549 108.995 15.75 108 15.75C107.005 15.75 106.052 15.3549 105.348 14.6517C104.645 13.9484 104.25 12.9946 104.25 12C104.25 11.0054 104.645 10.0516 105.348 9.34835C106.052 8.64509 107.005 8.25 108 8.25ZM108 8.95C107.191 8.95 106.415 9.27134 105.843 9.84332C105.271 10.4153 104.95 11.1911 104.95 12C104.95 12.8089 105.271 13.5847 105.843 14.1567C106.415 14.7287 107.191 15.05 108 15.05C108.809 15.05 109.585 14.7287 110.157 14.1567C110.729 13.5847 111.05 12.8089 111.05 12C111.05 11.1911 110.729 10.4153 110.157 9.84332C109.585 9.27134 108.809 8.95 108 8.95Z" stroke="#60656F"/>
<path d="M163.653 6.24679L163.653 6.24656C163.477 5.30419 162.977 4.67052 162.463 4.47465L162.463 4.47448C162.201 4.37411 161.682 4.28321 160.993 4.21142C160.323 4.14156 159.545 4.09451 158.803 4.06299C158.061 4.03152 157.36 4.01576 156.844 4.00787C156.586 4.00393 156.374 4.00196 156.228 4.00098C156.154 4.00049 156.097 4.00024 156.058 4.00012L156.015 4.00002L156.003 4L156.001 4H156H156L156 3.5L156 4H156H155.999L155.997 4L155.985 4.00002L155.942 4.00012C155.903 4.00024 155.846 4.00049 155.772 4.00098C155.626 4.00196 155.414 4.00393 155.156 4.00787C154.64 4.01576 153.939 4.03152 153.197 4.06299C152.455 4.09451 151.677 4.14156 151.007 4.21142C150.318 4.28321 149.799 4.37411 149.537 4.47448L149.537 4.47464C149.024 4.67052 148.523 5.30422 148.347 6.24655L148.347 6.24678C148.177 7.15256 148.089 8.57941 148.044 9.80563C148.022 10.4133 148.011 10.9626 148.006 11.3599C148.003 11.5585 148.001 11.719 148.001 11.8296L148 11.9566L148 11.9893L148 11.9975L148 11.9995L148 11.9999V12V12.0001L148 12.0005L148 12.0025L148 12.0107L148 12.0434L148.001 12.1704C148.001 12.281 148.003 12.4415 148.006 12.6401C148.011 13.0374 148.022 13.5867 148.044 14.1944C148.089 15.4206 148.177 16.8475 148.347 17.7534L148.347 17.7536C148.523 18.6957 149.024 19.3295 149.537 19.5255L149.537 19.5256C149.799 19.626 150.318 19.7169 151.007 19.7886C151.677 19.8585 152.455 19.9055 153.197 19.937C153.939 19.9685 154.64 19.9842 155.156 19.9921C155.414 19.9961 155.626 19.998 155.772 19.999C155.846 19.9995 155.903 19.9998 155.942 19.9999L155.985 20L155.997 20L155.999 20L156 20H156L156 20.5L156 20H156L156.001 20L156.003 20L156.015 20L156.058 19.9999C156.097 19.9998 156.154 19.9995 156.228 19.999C156.374 19.998 156.586 19.9961 156.844 19.9921C157.36 19.9842 158.061 19.9685 158.803 19.937C159.545 19.9055 160.323 19.8585 160.993 19.7886C161.682 19.7169 162.201 19.626 162.463 19.5256L162.463 19.5255C162.977 19.3295 163.477 18.6958 163.653 17.7536L163.653 17.7533C163.823 16.8475 163.911 15.4206 163.956 14.1944C163.978 13.5867 163.989 13.0374 163.994 12.6401C163.997 12.4415 163.999 12.281 163.999 12.1704L164 12.0434L164 12.0107L164 12.0025L164 12.0005V12.0001V12V11.9999V11.9995L164 11.9975L164 11.9893L164 11.9566L163.999 11.8296C163.999 11.719 163.997 11.5585 163.994 11.3599C163.989 10.9626 163.978 10.4133 163.956 9.80563C163.911 8.57941 163.823 7.15256 163.653 6.24679Z" stroke="#60656F"/>
<path d="M154.29 9.46949V14.552L157.437 12.0109L154.29 9.46949Z" stroke="#60656F"/>
<path d="M200.668 15.4448C199.637 15.4282 198.738 14.8749 198.218 14.0534C198.524 14.0417 198.824 13.9957 199.113 13.9142L199.077 12.9428C197.956 12.7168 197.055 11.8421 196.774 10.7138C197.087 10.8016 197.419 10.8529 197.767 10.8529H199.443L198.041 9.93472C197.241 9.41026 196.715 8.48109 196.715 7.42118C196.715 7.12958 196.756 6.84651 196.832 6.57913C198.612 8.47137 201.091 9.69825 203.844 9.83935L204.501 9.87299L204.358 9.23126C204.309 9.00975 204.281 8.77445 204.281 8.53294C204.281 6.84948 205.625 5.5 207.25 5.5C208.134 5.5 208.901 5.85293 209.448 6.4558L209.64 6.66801L209.921 6.60943C210.206 6.5497 210.488 6.47463 210.763 6.38413C210.604 6.53776 210.429 6.67351 210.24 6.78851L210.565 7.71115C210.713 7.69204 210.859 7.6688 211.005 7.64142C210.833 7.79742 210.654 7.94342 210.468 8.07851L210.248 8.23794L210.262 8.50946C210.269 8.65094 210.269 8.78644 210.269 8.94471C210.269 13.4054 206.911 18.5 200.847 18.5C199.665 18.5 198.532 18.2773 197.487 17.8714C198.793 17.6694 199.986 17.1297 200.974 16.3342L202.051 15.467L200.668 15.4448Z" stroke="#60656F"/>
</svg>
