<svg width="24" height="20" viewBox="0 0 24 20" fill="none" xmlns="http://www.w3.org/2000/svg">
<g clip-path="url(#clip0_1_289)">
<path d="M21.479 5.08308C21.4935 5.29349 21.4935 5.5039 21.4935 5.71624C21.4935 12.1865 16.5774 19.6487 7.58806 19.6487V19.6448C4.93258 19.6487 2.33226 18.8866 0.0967712 17.4496C0.4829 17.4961 0.870965 17.5194 1.26 17.5204C3.46064 17.5223 5.59838 16.7825 7.32967 15.4202C5.23838 15.3804 3.40451 14.0142 2.76387 12.0197C3.49645 12.1613 4.25129 12.1322 4.97032 11.9354C2.69032 11.4738 1.05 9.46673 1.05 7.13576C1.05 7.11443 1.05 7.09407 1.05 7.07371C1.72935 7.45283 2.49 7.66324 3.26806 7.68651C1.12064 6.24856 0.458707 3.38625 1.75548 1.14837C4.23677 4.20752 7.89774 6.06725 11.8277 6.26408C11.4339 4.56337 11.9719 2.78121 13.2416 1.58567C15.21 -0.268243 18.3058 -0.173221 20.1561 1.79801C21.2506 1.58179 22.2997 1.1794 23.2597 0.609262C22.8948 1.74275 22.1313 2.70558 21.1113 3.31741C22.08 3.20299 23.0264 2.94313 23.9177 2.54656C23.2616 3.53169 22.4352 4.3898 21.479 5.08308Z" fill="#1D9BF0"/>
</g>
<defs>
<clipPath id="clip0_1_289">
<rect width="24" height="19.7802" fill="white" transform="translate(0 0.109894)"/>
</clipPath>
</defs>
</svg>
